<?xml version="1.0" encoding="UTF-8" standalone="no"?>
<!DOCTYPE svg PUBLIC "-//W3C//DTD SVG 1.1//EN"
 "http://www.w3.org/Graphics/SVG/1.1/DTD/svg11.dtd">
<!-- Generated by graphviz version 2.47.3 (20210619.1520)
 -->
<!-- Title: dependencies Pages: 1 -->
<svg width="1572pt" height="174pt"
 viewBox="0.00 0.00 1572.00 173.80" xmlns="http://www.w3.org/2000/svg" xmlns:xlink="http://www.w3.org/1999/xlink">
<g id="graph0" class="graph" transform="scale(1 1) rotate(0) translate(4 169.8)">
<title>dependencies</title>
<polygon fill="white" stroke="transparent" points="-4,4 -4,-169.8 1568,-169.8 1568,4 -4,4"/>
<text text-anchor="middle" x="782" y="-8.2" font-family="sans-serif" font-size="14.00">dependencies</text>
<g id="clust1" class="cluster">
<title>cluster_ManageCartModule</title>
<polygon fill="none" stroke="black" stroke-dasharray="1,5" points="8,-32.8 8,-157.8 1556,-157.8 1556,-32.8 8,-32.8"/>
</g>
<g id="clust6" class="cluster">
<title>cluster_ManageCartModule_imports</title>
<polygon fill="none" stroke="black" points="524,-40.8 524,-92.8 1548,-92.8 1548,-40.8 524,-40.8"/>
</g>
<g id="clust2" class="cluster">
<title>cluster_ManageCartModule_declarations</title>
<polygon fill="none" stroke="black" points="16,-40.8 16,-92.8 516,-92.8 516,-40.8 16,-40.8"/>
</g>
<!-- CartSummaryComponent -->
<g id="node1" class="node">
<title>CartSummaryComponent</title>
<polygon fill="#ffffb3" stroke="black" points="507.87,-84.8 348.13,-84.8 348.13,-48.8 507.87,-48.8 507.87,-84.8"/>
<text text-anchor="middle" x="428" y="-62.6" font-family="Times,serif" font-size="14.00">CartSummaryComponent</text>
</g>
<!-- ManageCartModule -->
<g id="node4" class="node">
<title>ManageCartModule</title>
<polygon fill="#8dd3c7" stroke="black" points="830.24,-149.8 827.24,-153.8 806.24,-153.8 803.24,-149.8 701.76,-149.8 701.76,-113.8 830.24,-113.8 830.24,-149.8"/>
<text text-anchor="middle" x="766" y="-127.6" font-family="Times,serif" font-size="14.00">ManageCartModule</text>
</g>
<!-- CartSummaryComponent&#45;&gt;ManageCartModule -->
<g id="edge1" class="edge">
<title>CartSummaryComponent&#45;&gt;ManageCartModule</title>
<path fill="none" stroke="black" d="M428,-85.07C428,-103.36 428,-128.8 428,-128.8 428,-128.8 691.63,-128.8 691.63,-128.8"/>
<polygon fill="black" stroke="black" points="691.63,-132.3 701.63,-128.8 691.63,-125.3 691.63,-132.3"/>
</g>
<!-- CartTableComponent -->
<g id="node2" class="node">
<title>CartTableComponent</title>
<polygon fill="#ffffb3" stroke="black" points="329.81,-84.8 192.19,-84.8 192.19,-48.8 329.81,-48.8 329.81,-84.8"/>
<text text-anchor="middle" x="261" y="-62.6" font-family="Times,serif" font-size="14.00">CartTableComponent</text>
</g>
<!-- CartTableComponent&#45;&gt;ManageCartModule -->
<g id="edge2" class="edge">
<title>CartTableComponent&#45;&gt;ManageCartModule</title>
<path fill="none" stroke="black" d="M261,-84.93C261,-105.37 261,-135.8 261,-135.8 261,-135.8 691.53,-135.8 691.53,-135.8"/>
<polygon fill="black" stroke="black" points="691.53,-139.3 701.53,-135.8 691.53,-132.3 691.53,-139.3"/>
</g>
<!-- ManageCartComponent -->
<g id="node3" class="node">
<title>ManageCartComponent</title>
<polygon fill="#ffffb3" stroke="black" points="174.02,-84.8 23.98,-84.8 23.98,-48.8 174.02,-48.8 174.02,-84.8"/>
<text text-anchor="middle" x="99" y="-62.6" font-family="Times,serif" font-size="14.00">ManageCartComponent</text>
</g>
<!-- ManageCartComponent&#45;&gt;ManageCartModule -->
<g id="edge3" class="edge">
<title>ManageCartComponent&#45;&gt;ManageCartModule</title>
<path fill="none" stroke="black" d="M99,-84.81C99,-107.29 99,-142.8 99,-142.8 99,-142.8 691.74,-142.8 691.74,-142.8"/>
<polygon fill="black" stroke="black" points="691.74,-146.3 701.74,-142.8 691.74,-139.3 691.74,-146.3"/>
</g>
<!-- AlertModule -->
<g id="node5" class="node">
<title>AlertModule</title>
<polygon fill="#8dd3c7" stroke="black" points="1540.31,-84.8 1537.31,-88.8 1516.31,-88.8 1513.31,-84.8 1451.69,-84.8 1451.69,-48.8 1540.31,-48.8 1540.31,-84.8"/>
<text text-anchor="middle" x="1496" y="-62.6" font-family="Times,serif" font-size="14.00">AlertModule</text>
</g>
<!-- AlertModule&#45;&gt;ManageCartModule -->
<g id="edge4" class="edge">
<title>AlertModule&#45;&gt;ManageCartModule</title>
<path fill="none" stroke="black" d="M1496,-84.81C1496,-107.29 1496,-142.8 1496,-142.8 1496,-142.8 840.46,-142.8 840.46,-142.8"/>
<polygon fill="black" stroke="black" points="840.46,-139.3 830.46,-142.8 840.46,-146.3 840.46,-139.3"/>
</g>
<!-- ConfigurationSummaryModule -->
<g id="node6" class="node">
<title>ConfigurationSummaryModule</title>
<polygon fill="#8dd3c7" stroke="black" points="1434.03,-84.8 1431.03,-88.8 1410.03,-88.8 1407.03,-84.8 1241.97,-84.8 1241.97,-48.8 1434.03,-48.8 1434.03,-84.8"/>
<text text-anchor="middle" x="1338" y="-62.6" font-family="Times,serif" font-size="14.00">ConfigurationSummaryModule</text>
</g>
<!-- ConfigurationSummaryModule&#45;&gt;ManageCartModule -->
<g id="edge5" class="edge">
<title>ConfigurationSummaryModule&#45;&gt;ManageCartModule</title>
<path fill="none" stroke="black" d="M1338,-84.93C1338,-105.37 1338,-135.8 1338,-135.8 1338,-135.8 840.5,-135.8 840.5,-135.8"/>
<polygon fill="black" stroke="black" points="840.5,-132.3 830.5,-135.8 840.5,-139.3 840.5,-132.3"/>
</g>
<!-- ConstraintRuleModule -->
<g id="node7" class="node">
<title>ConstraintRuleModule</title>
<polygon fill="#8dd3c7" stroke="black" points="1224.32,-84.8 1221.32,-88.8 1200.32,-88.8 1197.32,-84.8 1079.68,-84.8 1079.68,-48.8 1224.32,-48.8 1224.32,-84.8"/>
<text text-anchor="middle" x="1152" y="-62.6" font-family="Times,serif" font-size="14.00">ConstraintRuleModule</text>
</g>
<!-- ConstraintRuleModule&#45;&gt;ManageCartModule -->
<g id="edge6" class="edge">
<title>ConstraintRuleModule&#45;&gt;ManageCartModule</title>
<path fill="none" stroke="black" d="M1152,-85.07C1152,-103.36 1152,-128.8 1152,-128.8 1152,-128.8 840.61,-128.8 840.61,-128.8"/>
<polygon fill="black" stroke="black" points="840.61,-125.3 830.61,-128.8 840.61,-132.3 840.61,-125.3"/>
</g>
<!-- LineItemTableRowModule -->
<g id="node8" class="node">
<title>LineItemTableRowModule</title>
<polygon fill="#8dd3c7" stroke="black" points="1061.68,-84.8 1058.68,-88.8 1037.68,-88.8 1034.68,-84.8 892.32,-84.8 892.32,-48.8 1061.68,-48.8 1061.68,-84.8"/>
<text text-anchor="middle" x="977" y="-62.6" font-family="Times,serif" font-size="14.00">LineItemTableRowModule</text>
</g>
<!-- LineItemTableRowModule&#45;&gt;ManageCartModule -->
<g id="edge7" class="edge">
<title>LineItemTableRowModule&#45;&gt;ManageCartModule</title>
<path fill="none" stroke="black" d="M977,-84.81C977,-100.85 977,-121.8 977,-121.8 977,-121.8 840.45,-121.8 840.45,-121.8"/>
<polygon fill="black" stroke="black" points="840.45,-118.3 830.45,-121.8 840.45,-125.3 840.45,-118.3"/>
</g>
<!-- PricingModule -->
<g id="node9" class="node">
<title>PricingModule</title>
<polygon fill="#8dd3c7" stroke="black" points="873.99,-84.8 870.99,-88.8 849.99,-88.8 846.99,-84.8 774.01,-84.8 774.01,-48.8 873.99,-48.8 873.99,-84.8"/>
<text text-anchor="middle" x="824" y="-62.6" font-family="Times,serif" font-size="14.00">PricingModule</text>
</g>
<!-- PricingModule&#45;&gt;ManageCartModule -->
<g id="edge8" class="edge">
<title>PricingModule&#45;&gt;ManageCartModule</title>
<path fill="none" stroke="black" d="M802.19,-84.91C802.19,-84.91 802.19,-103.79 802.19,-103.79"/>
<polygon fill="black" stroke="black" points="798.69,-103.79 802.19,-113.79 805.69,-103.79 798.69,-103.79"/>
</g>
<!-- QuoteModule -->
<g id="node10" class="node">
<title>QuoteModule</title>
<polygon fill="#8dd3c7" stroke="black" points="755.76,-84.8 752.76,-88.8 731.76,-88.8 728.76,-84.8 662.24,-84.8 662.24,-48.8 755.76,-48.8 755.76,-84.8"/>
<text text-anchor="middle" x="709" y="-62.6" font-family="Times,serif" font-size="14.00">QuoteModule</text>
</g>
<!-- QuoteModule&#45;&gt;ManageCartModule -->
<g id="edge9" class="edge">
<title>QuoteModule&#45;&gt;ManageCartModule</title>
<path fill="none" stroke="black" d="M728.76,-84.91C728.76,-84.91 728.76,-103.79 728.76,-103.79"/>
<polygon fill="black" stroke="black" points="725.26,-103.79 728.76,-113.79 732.26,-103.79 725.26,-103.79"/>
</g>
<!-- SelectAllModule -->
<g id="node11" class="node">
<title>SelectAllModule</title>
<polygon fill="#8dd3c7" stroke="black" points="643.65,-84.8 640.65,-88.8 619.65,-88.8 616.65,-84.8 532.35,-84.8 532.35,-48.8 643.65,-48.8 643.65,-84.8"/>
<text text-anchor="middle" x="588" y="-62.6" font-family="Times,serif" font-size="14.00">SelectAllModule</text>
</g>
<!-- SelectAllModule&#45;&gt;ManageCartModule -->
<g id="edge10" class="edge">
<title>SelectAllModule&#45;&gt;ManageCartModule</title>
<path fill="none" stroke="black" d="M588,-84.81C588,-100.85 588,-121.8 588,-121.8 588,-121.8 691.74,-121.8 691.74,-121.8"/>
<polygon fill="black" stroke="black" points="691.74,-125.3 701.74,-121.8 691.74,-118.3 691.74,-125.3"/>
</g>
</g>
</svg>
