<?xml version="1.0" encoding="UTF-8" standalone="no"?>
<!DOCTYPE svg PUBLIC "-//W3C//DTD SVG 1.1//EN"
 "http://www.w3.org/Graphics/SVG/1.1/DTD/svg11.dtd">
<!-- Generated by graphviz version 2.47.3 (20210619.1520)
 -->
<!-- Title: dependencies Pages: 1 -->
<svg width="1458pt" height="174pt"
 viewBox="0.00 0.00 1458.00 173.80" xmlns="http://www.w3.org/2000/svg" xmlns:xlink="http://www.w3.org/1999/xlink">
<g id="graph0" class="graph" transform="scale(1 1) rotate(0) translate(4 169.8)">
<title>dependencies</title>
<polygon fill="white" stroke="transparent" points="-4,4 -4,-169.8 1454,-169.8 1454,4 -4,4"/>
<text text-anchor="middle" x="725" y="-8.2" font-family="sans-serif" font-size="14.00">dependencies</text>
<g id="clust1" class="cluster">
<title>cluster_QuotesModule</title>
<polygon fill="none" stroke="black" stroke-dasharray="1,5" points="8,-32.8 8,-157.8 1442,-157.8 1442,-32.8 8,-32.8"/>
</g>
<g id="clust7" class="cluster">
<title>cluster_QuotesModule_imports</title>
<polygon fill="none" stroke="black" points="724,-40.8 724,-92.8 1434,-92.8 1434,-40.8 724,-40.8"/>
</g>
<g id="clust2" class="cluster">
<title>cluster_QuotesModule_declarations</title>
<polygon fill="none" stroke="black" points="16,-40.8 16,-92.8 716,-92.8 716,-40.8 16,-40.8"/>
</g>
<!-- CreateQuoteComponent -->
<g id="node1" class="node">
<title>CreateQuoteComponent</title>
<polygon fill="#ffffb3" stroke="black" points="708.08,-84.8 555.92,-84.8 555.92,-48.8 708.08,-48.8 708.08,-84.8"/>
<text text-anchor="middle" x="632" y="-62.6" font-family="Times,serif" font-size="14.00">CreateQuoteComponent</text>
</g>
<!-- QuotesModule -->
<g id="node5" class="node">
<title>QuotesModule</title>
<polygon fill="#8dd3c7" stroke="black" points="827.71,-149.8 824.71,-153.8 803.71,-153.8 800.71,-149.8 728.29,-149.8 728.29,-113.8 827.71,-113.8 827.71,-149.8"/>
<text text-anchor="middle" x="778" y="-127.6" font-family="Times,serif" font-size="14.00">QuotesModule</text>
</g>
<!-- CreateQuoteComponent&#45;&gt;QuotesModule -->
<g id="edge1" class="edge">
<title>CreateQuoteComponent&#45;&gt;QuotesModule</title>
<path fill="none" stroke="black" d="M632,-84.81C632,-100.85 632,-121.8 632,-121.8 632,-121.8 718.16,-121.8 718.16,-121.8"/>
<polygon fill="black" stroke="black" points="718.16,-125.3 728.16,-121.8 718.16,-118.3 718.16,-125.3"/>
</g>
<!-- QuoteDetailComponent -->
<g id="node2" class="node">
<title>QuoteDetailComponent</title>
<polygon fill="#ffffb3" stroke="black" points="537.75,-84.8 388.25,-84.8 388.25,-48.8 537.75,-48.8 537.75,-84.8"/>
<text text-anchor="middle" x="463" y="-62.6" font-family="Times,serif" font-size="14.00">QuoteDetailComponent</text>
</g>
<!-- QuoteDetailComponent&#45;&gt;QuotesModule -->
<g id="edge2" class="edge">
<title>QuoteDetailComponent&#45;&gt;QuotesModule</title>
<path fill="none" stroke="black" d="M463,-85.07C463,-103.36 463,-128.8 463,-128.8 463,-128.8 718.09,-128.8 718.09,-128.8"/>
<polygon fill="black" stroke="black" points="718.09,-132.3 728.09,-128.8 718.09,-125.3 718.09,-132.3"/>
</g>
<!-- QuoteListComponent -->
<g id="node3" class="node">
<title>QuoteListComponent</title>
<polygon fill="#ffffb3" stroke="black" points="369.82,-84.8 232.18,-84.8 232.18,-48.8 369.82,-48.8 369.82,-84.8"/>
<text text-anchor="middle" x="301" y="-62.6" font-family="Times,serif" font-size="14.00">QuoteListComponent</text>
</g>
<!-- QuoteListComponent&#45;&gt;QuotesModule -->
<g id="edge3" class="edge">
<title>QuoteListComponent&#45;&gt;QuotesModule</title>
<path fill="none" stroke="black" d="M301,-84.93C301,-105.37 301,-135.8 301,-135.8 301,-135.8 718.3,-135.8 718.3,-135.8"/>
<polygon fill="black" stroke="black" points="718.3,-139.3 728.3,-135.8 718.3,-132.3 718.3,-139.3"/>
</g>
<!-- RequestQuoteFormComponent -->
<g id="node4" class="node">
<title>RequestQuoteFormComponent</title>
<polygon fill="#ffffb3" stroke="black" points="214.48,-84.8 23.52,-84.8 23.52,-48.8 214.48,-48.8 214.48,-84.8"/>
<text text-anchor="middle" x="119" y="-62.6" font-family="Times,serif" font-size="14.00">RequestQuoteFormComponent</text>
</g>
<!-- RequestQuoteFormComponent&#45;&gt;QuotesModule -->
<g id="edge4" class="edge">
<title>RequestQuoteFormComponent&#45;&gt;QuotesModule</title>
<path fill="none" stroke="black" d="M119,-84.81C119,-107.29 119,-142.8 119,-142.8 119,-142.8 718.2,-142.8 718.2,-142.8"/>
<polygon fill="black" stroke="black" points="718.2,-146.3 728.2,-142.8 718.2,-139.3 718.2,-146.3"/>
</g>
<!-- DataFilterModule -->
<g id="node6" class="node">
<title>DataFilterModule</title>
<polygon fill="#8dd3c7" stroke="black" points="1426.31,-84.8 1423.31,-88.8 1402.31,-88.8 1399.31,-84.8 1309.69,-84.8 1309.69,-48.8 1426.31,-48.8 1426.31,-84.8"/>
<text text-anchor="middle" x="1368" y="-62.6" font-family="Times,serif" font-size="14.00">DataFilterModule</text>
</g>
<!-- DataFilterModule&#45;&gt;QuotesModule -->
<g id="edge5" class="edge">
<title>DataFilterModule&#45;&gt;QuotesModule</title>
<path fill="none" stroke="black" d="M1368,-84.81C1368,-107.29 1368,-142.8 1368,-142.8 1368,-142.8 837.79,-142.8 837.79,-142.8"/>
<polygon fill="black" stroke="black" points="837.79,-139.3 827.79,-142.8 837.79,-146.3 837.79,-139.3"/>
</g>
<!-- LineItemTableRowModule -->
<g id="node7" class="node">
<title>LineItemTableRowModule</title>
<polygon fill="#8dd3c7" stroke="black" points="1291.68,-84.8 1288.68,-88.8 1267.68,-88.8 1264.68,-84.8 1122.32,-84.8 1122.32,-48.8 1291.68,-48.8 1291.68,-84.8"/>
<text text-anchor="middle" x="1207" y="-62.6" font-family="Times,serif" font-size="14.00">LineItemTableRowModule</text>
</g>
<!-- LineItemTableRowModule&#45;&gt;QuotesModule -->
<g id="edge6" class="edge">
<title>LineItemTableRowModule&#45;&gt;QuotesModule</title>
<path fill="none" stroke="black" d="M1207,-84.93C1207,-105.37 1207,-135.8 1207,-135.8 1207,-135.8 837.63,-135.8 837.63,-135.8"/>
<polygon fill="black" stroke="black" points="837.63,-132.3 827.63,-135.8 837.63,-139.3 837.63,-132.3"/>
</g>
<!-- PricingModule -->
<g id="node8" class="node">
<title>PricingModule</title>
<polygon fill="#8dd3c7" stroke="black" points="1103.99,-84.8 1100.99,-88.8 1079.99,-88.8 1076.99,-84.8 1004.01,-84.8 1004.01,-48.8 1103.99,-48.8 1103.99,-84.8"/>
<text text-anchor="middle" x="1054" y="-62.6" font-family="Times,serif" font-size="14.00">PricingModule</text>
</g>
<!-- PricingModule&#45;&gt;QuotesModule -->
<g id="edge7" class="edge">
<title>PricingModule&#45;&gt;QuotesModule</title>
<path fill="none" stroke="black" d="M1054,-85.07C1054,-103.36 1054,-128.8 1054,-128.8 1054,-128.8 837.66,-128.8 837.66,-128.8"/>
<polygon fill="black" stroke="black" points="837.66,-125.3 827.66,-128.8 837.66,-132.3 837.66,-125.3"/>
</g>
<!-- QuotesRoutingModule -->
<g id="node9" class="node">
<title>QuotesRoutingModule</title>
<polygon fill="#8dd3c7" stroke="black" points="986.32,-84.8 983.32,-88.8 962.32,-88.8 959.32,-84.8 841.68,-84.8 841.68,-48.8 986.32,-48.8 986.32,-84.8"/>
<text text-anchor="middle" x="914" y="-62.6" font-family="Times,serif" font-size="14.00">QuotesRoutingModule</text>
</g>
<!-- QuotesRoutingModule&#45;&gt;QuotesModule -->
<g id="edge8" class="edge">
<title>QuotesRoutingModule&#45;&gt;QuotesModule</title>
<path fill="none" stroke="black" d="M914,-84.81C914,-100.85 914,-121.8 914,-121.8 914,-121.8 837.87,-121.8 837.87,-121.8"/>
<polygon fill="black" stroke="black" points="837.87,-118.3 827.87,-121.8 837.87,-125.3 837.87,-118.3"/>
</g>
<!-- TableModule -->
<g id="node10" class="node">
<title>TableModule</title>
<polygon fill="#8dd3c7" stroke="black" points="823.92,-84.8 820.92,-88.8 799.92,-88.8 796.92,-84.8 732.08,-84.8 732.08,-48.8 823.92,-48.8 823.92,-84.8"/>
<text text-anchor="middle" x="778" y="-62.6" font-family="Times,serif" font-size="14.00">TableModule</text>
</g>
<!-- TableModule&#45;&gt;QuotesModule -->
<g id="edge9" class="edge">
<title>TableModule&#45;&gt;QuotesModule</title>
<path fill="none" stroke="black" d="M778,-84.91C778,-84.91 778,-103.79 778,-103.79"/>
<polygon fill="black" stroke="black" points="774.5,-103.79 778,-113.79 781.5,-103.79 774.5,-103.79"/>
</g>
</g>
</svg>
