<?xml version="1.0" encoding="UTF-8" standalone="no"?>
<!DOCTYPE svg PUBLIC "-//W3C//DTD SVG 1.1//EN"
 "http://www.w3.org/Graphics/SVG/1.1/DTD/svg11.dtd">
<!-- Generated by graphviz version 2.47.3 (20210619.1520)
 -->
<!-- Title: dependencies Pages: 1 -->
<svg width="1901pt" height="174pt"
 viewBox="0.00 0.00 1901.00 173.80" xmlns="http://www.w3.org/2000/svg" xmlns:xlink="http://www.w3.org/1999/xlink">
<g id="graph0" class="graph" transform="scale(1 1) rotate(0) translate(4 169.8)">
<title>dependencies</title>
<polygon fill="white" stroke="transparent" points="-4,4 -4,-169.8 1897,-169.8 1897,4 -4,4"/>
<text text-anchor="middle" x="946.5" y="-8.2" font-family="sans-serif" font-size="14.00">dependencies</text>
<g id="clust1" class="cluster">
<title>cluster_MyAccountModule</title>
<polygon fill="none" stroke="black" stroke-dasharray="1,5" points="8,-32.8 8,-157.8 1885,-157.8 1885,-32.8 8,-32.8"/>
</g>
<g id="clust2" class="cluster">
<title>cluster_MyAccountModule_declarations</title>
<polygon fill="none" stroke="black" points="862,-40.8 862,-92.8 1877,-92.8 1877,-40.8 862,-40.8"/>
</g>
<g id="clust9" class="cluster">
<title>cluster_MyAccountModule_imports</title>
<polygon fill="none" stroke="black" points="16,-40.8 16,-92.8 854,-92.8 854,-40.8 16,-40.8"/>
</g>
<!-- AddressBookComponent -->
<g id="node1" class="node">
<title>AddressBookComponent</title>
<polygon fill="#ffffb3" stroke="black" points="1868.54,-84.8 1711.46,-84.8 1711.46,-48.8 1868.54,-48.8 1868.54,-84.8"/>
<text text-anchor="middle" x="1790" y="-62.6" font-family="Times,serif" font-size="14.00">AddressBookComponent</text>
</g>
<!-- MyAccountModule -->
<g id="node7" class="node">
<title>MyAccountModule</title>
<polygon fill="#8dd3c7" stroke="black" points="865.42,-149.8 862.42,-153.8 841.42,-153.8 838.42,-149.8 738.58,-149.8 738.58,-113.8 865.42,-113.8 865.42,-149.8"/>
<text text-anchor="middle" x="802" y="-127.6" font-family="Times,serif" font-size="14.00">MyAccountModule</text>
</g>
<!-- AddressBookComponent&#45;&gt;MyAccountModule -->
<g id="edge1" class="edge">
<title>AddressBookComponent&#45;&gt;MyAccountModule</title>
<path fill="none" stroke="black" d="M1790,-84.89C1790,-107.93 1790,-144.8 1790,-144.8 1790,-144.8 875.31,-144.8 875.31,-144.8"/>
<polygon fill="black" stroke="black" points="875.31,-141.3 865.31,-144.8 875.31,-148.3 875.31,-141.3"/>
</g>
<!-- DashboardComponent -->
<g id="node2" class="node">
<title>DashboardComponent</title>
<polygon fill="#ffffb3" stroke="black" points="1692.97,-84.8 1551.03,-84.8 1551.03,-48.8 1692.97,-48.8 1692.97,-84.8"/>
<text text-anchor="middle" x="1622" y="-62.6" font-family="Times,serif" font-size="14.00">DashboardComponent</text>
</g>
<!-- DashboardComponent&#45;&gt;MyAccountModule -->
<g id="edge2" class="edge">
<title>DashboardComponent&#45;&gt;MyAccountModule</title>
<path fill="none" stroke="black" d="M1622,-85.08C1622,-106.12 1622,-137.8 1622,-137.8 1622,-137.8 875.32,-137.8 875.32,-137.8"/>
<polygon fill="black" stroke="black" points="875.32,-134.3 865.32,-137.8 875.32,-141.3 875.32,-134.3"/>
</g>
<!-- FavoriteListComponent -->
<g id="node3" class="node">
<title>FavoriteListComponent</title>
<polygon fill="#ffffb3" stroke="black" points="1532.76,-84.8 1383.24,-84.8 1383.24,-48.8 1532.76,-48.8 1532.76,-84.8"/>
<text text-anchor="middle" x="1458" y="-62.6" font-family="Times,serif" font-size="14.00">FavoriteListComponent</text>
</g>
<!-- FavoriteListComponent&#45;&gt;MyAccountModule -->
<g id="edge3" class="edge">
<title>FavoriteListComponent&#45;&gt;MyAccountModule</title>
<path fill="none" stroke="black" d="M1458,-84.91C1458,-104.14 1458,-131.8 1458,-131.8 1458,-131.8 875.5,-131.8 875.5,-131.8"/>
<polygon fill="black" stroke="black" points="875.5,-128.3 865.5,-131.8 875.5,-135.3 875.5,-128.3"/>
</g>
<!-- MyAccountLayoutComponent -->
<g id="node4" class="node">
<title>MyAccountLayoutComponent</title>
<polygon fill="#ffffb3" stroke="black" points="1364.86,-84.8 1177.14,-84.8 1177.14,-48.8 1364.86,-48.8 1364.86,-84.8"/>
<text text-anchor="middle" x="1271" y="-62.6" font-family="Times,serif" font-size="14.00">MyAccountLayoutComponent</text>
</g>
<!-- MyAccountLayoutComponent&#45;&gt;MyAccountModule -->
<g id="edge4" class="edge">
<title>MyAccountLayoutComponent&#45;&gt;MyAccountModule</title>
<path fill="none" stroke="black" d="M1271,-84.82C1271,-102.17 1271,-125.8 1271,-125.8 1271,-125.8 875.25,-125.8 875.25,-125.8"/>
<polygon fill="black" stroke="black" points="875.25,-122.3 865.25,-125.8 875.25,-129.3 875.25,-122.3"/>
</g>
<!-- QuoteListComponent -->
<g id="node5" class="node">
<title>QuoteListComponent</title>
<polygon fill="#ffffb3" stroke="black" points="1158.82,-84.8 1021.18,-84.8 1021.18,-48.8 1158.82,-48.8 1158.82,-84.8"/>
<text text-anchor="middle" x="1090" y="-62.6" font-family="Times,serif" font-size="14.00">QuoteListComponent</text>
</g>
<!-- QuoteListComponent&#45;&gt;MyAccountModule -->
<g id="edge5" class="edge">
<title>QuoteListComponent&#45;&gt;MyAccountModule</title>
<path fill="none" stroke="black" d="M1090,-85.04C1090,-100.37 1090,-119.8 1090,-119.8 1090,-119.8 875.56,-119.8 875.56,-119.8"/>
<polygon fill="black" stroke="black" points="875.56,-116.3 865.56,-119.8 875.56,-123.3 875.56,-116.3"/>
</g>
<!-- WishlistsComponent -->
<g id="node6" class="node">
<title>WishlistsComponent</title>
<polygon fill="#ffffb3" stroke="black" points="1003.94,-84.8 870.06,-84.8 870.06,-48.8 1003.94,-48.8 1003.94,-84.8"/>
<text text-anchor="middle" x="937" y="-62.6" font-family="Times,serif" font-size="14.00">WishlistsComponent</text>
</g>
<!-- WishlistsComponent&#45;&gt;MyAccountModule -->
<g id="edge6" class="edge">
<title>WishlistsComponent&#45;&gt;MyAccountModule</title>
<path fill="none" stroke="black" d="M870.22,-66.8C861.59,-66.8 855.68,-66.8 855.68,-66.8 855.68,-66.8 855.68,-103.69 855.68,-103.69"/>
<polygon fill="black" stroke="black" points="852.18,-103.69 855.68,-113.69 859.18,-103.69 852.18,-103.69"/>
</g>
<!-- AlertModule -->
<g id="node8" class="node">
<title>AlertModule</title>
<polygon fill="#8dd3c7" stroke="black" points="846.31,-84.8 843.31,-88.8 822.31,-88.8 819.31,-84.8 757.69,-84.8 757.69,-48.8 846.31,-48.8 846.31,-84.8"/>
<text text-anchor="middle" x="802" y="-62.6" font-family="Times,serif" font-size="14.00">AlertModule</text>
</g>
<!-- AlertModule&#45;&gt;MyAccountModule -->
<g id="edge7" class="edge">
<title>AlertModule&#45;&gt;MyAccountModule</title>
<path fill="none" stroke="black" d="M802,-84.91C802,-84.91 802,-103.79 802,-103.79"/>
<polygon fill="black" stroke="black" points="798.5,-103.79 802,-113.79 805.5,-103.79 798.5,-103.79"/>
</g>
<!-- ConfigurationSummaryModule -->
<g id="node9" class="node">
<title>ConfigurationSummaryModule</title>
<polygon fill="#8dd3c7" stroke="black" points="740.03,-84.8 737.03,-88.8 716.03,-88.8 713.03,-84.8 547.97,-84.8 547.97,-48.8 740.03,-48.8 740.03,-84.8"/>
<text text-anchor="middle" x="644" y="-62.6" font-family="Times,serif" font-size="14.00">ConfigurationSummaryModule</text>
</g>
<!-- ConfigurationSummaryModule&#45;&gt;MyAccountModule -->
<g id="edge8" class="edge">
<title>ConfigurationSummaryModule&#45;&gt;MyAccountModule</title>
<path fill="none" stroke="black" d="M740.1,-66.8C745.66,-66.8 749.06,-66.8 749.06,-66.8 749.06,-66.8 749.06,-103.69 749.06,-103.69"/>
<polygon fill="black" stroke="black" points="745.56,-103.69 749.06,-113.69 752.56,-103.69 745.56,-103.69"/>
</g>
<!-- ConstraintRuleModule -->
<g id="node10" class="node">
<title>ConstraintRuleModule</title>
<polygon fill="#8dd3c7" stroke="black" points="530.32,-84.8 527.32,-88.8 506.32,-88.8 503.32,-84.8 385.68,-84.8 385.68,-48.8 530.32,-48.8 530.32,-84.8"/>
<text text-anchor="middle" x="458" y="-62.6" font-family="Times,serif" font-size="14.00">ConstraintRuleModule</text>
</g>
<!-- ConstraintRuleModule&#45;&gt;MyAccountModule -->
<g id="edge9" class="edge">
<title>ConstraintRuleModule&#45;&gt;MyAccountModule</title>
<path fill="none" stroke="black" d="M458,-85.04C458,-100.37 458,-119.8 458,-119.8 458,-119.8 728.5,-119.8 728.5,-119.8"/>
<polygon fill="black" stroke="black" points="728.5,-123.3 738.5,-119.8 728.5,-116.3 728.5,-123.3"/>
</g>
<!-- DataFilterModule -->
<g id="node11" class="node">
<title>DataFilterModule</title>
<polygon fill="#8dd3c7" stroke="black" points="368.31,-84.8 365.31,-88.8 344.31,-88.8 341.31,-84.8 251.69,-84.8 251.69,-48.8 368.31,-48.8 368.31,-84.8"/>
<text text-anchor="middle" x="310" y="-62.6" font-family="Times,serif" font-size="14.00">DataFilterModule</text>
</g>
<!-- DataFilterModule&#45;&gt;MyAccountModule -->
<g id="edge10" class="edge">
<title>DataFilterModule&#45;&gt;MyAccountModule</title>
<path fill="none" stroke="black" d="M310,-84.82C310,-102.17 310,-125.8 310,-125.8 310,-125.8 728.69,-125.8 728.69,-125.8"/>
<polygon fill="black" stroke="black" points="728.69,-129.3 738.69,-125.8 728.69,-122.3 728.69,-129.3"/>
</g>
<!-- PricingModule -->
<g id="node12" class="node">
<title>PricingModule</title>
<polygon fill="#8dd3c7" stroke="black" points="233.99,-84.8 230.99,-88.8 209.99,-88.8 206.99,-84.8 134.01,-84.8 134.01,-48.8 233.99,-48.8 233.99,-84.8"/>
<text text-anchor="middle" x="184" y="-62.6" font-family="Times,serif" font-size="14.00">PricingModule</text>
</g>
<!-- PricingModule&#45;&gt;MyAccountModule -->
<g id="edge11" class="edge">
<title>PricingModule&#45;&gt;MyAccountModule</title>
<path fill="none" stroke="black" d="M184,-84.91C184,-104.14 184,-131.8 184,-131.8 184,-131.8 728.77,-131.8 728.77,-131.8"/>
<polygon fill="black" stroke="black" points="728.77,-135.3 738.77,-131.8 728.77,-128.3 728.77,-135.3"/>
</g>
<!-- TableModule -->
<g id="node13" class="node">
<title>TableModule</title>
<polygon fill="#8dd3c7" stroke="black" points="115.92,-84.8 112.92,-88.8 91.92,-88.8 88.92,-84.8 24.08,-84.8 24.08,-48.8 115.92,-48.8 115.92,-84.8"/>
<text text-anchor="middle" x="70" y="-62.6" font-family="Times,serif" font-size="14.00">TableModule</text>
</g>
<!-- TableModule&#45;&gt;MyAccountModule -->
<g id="edge12" class="edge">
<title>TableModule&#45;&gt;MyAccountModule</title>
<path fill="none" stroke="black" d="M85.24,-85.08C85.24,-106.12 85.24,-137.8 85.24,-137.8 85.24,-137.8 728.71,-137.8 728.71,-137.8"/>
<polygon fill="black" stroke="black" points="728.71,-141.3 738.71,-137.8 728.71,-134.3 728.71,-141.3"/>
</g>
<!-- TableModule&#45;&gt;MyAccountModule -->
<g id="edge13" class="edge">
<title>TableModule&#45;&gt;MyAccountModule</title>
<path fill="none" stroke="black" d="M54.76,-84.89C54.76,-107.93 54.76,-144.8 54.76,-144.8 54.76,-144.8 728.61,-144.8 728.61,-144.8"/>
<polygon fill="black" stroke="black" points="728.61,-148.3 738.61,-144.8 728.61,-141.3 728.61,-148.3"/>
</g>
</g>
</svg>
