<?xml version="1.0" encoding="UTF-8" standalone="no"?>
<!DOCTYPE svg PUBLIC "-//W3C//DTD SVG 1.1//EN"
 "http://www.w3.org/Graphics/SVG/1.1/DTD/svg11.dtd">
<!-- Generated by graphviz version 2.47.3 (20210619.1520)
 -->
<!-- Title: dependencies Pages: 1 -->
<svg width="1678pt" height="174pt"
 viewBox="0.00 0.00 1678.00 173.80" xmlns="http://www.w3.org/2000/svg" xmlns:xlink="http://www.w3.org/1999/xlink">
<g id="graph0" class="graph" transform="scale(1 1) rotate(0) translate(4 169.8)">
<title>dependencies</title>
<polygon fill="white" stroke="transparent" points="-4,4 -4,-169.8 1674,-169.8 1674,4 -4,4"/>
<text text-anchor="middle" x="835" y="-8.2" font-family="sans-serif" font-size="14.00">dependencies</text>
<g id="clust1" class="cluster">
<title>cluster_CartsModule</title>
<polygon fill="none" stroke="black" stroke-dasharray="1,5" points="8,-32.8 8,-157.8 1662,-157.8 1662,-32.8 8,-32.8"/>
</g>
<g id="clust2" class="cluster">
<title>cluster_CartsModule_declarations</title>
<polygon fill="none" stroke="black" points="1198,-40.8 1198,-92.8 1654,-92.8 1654,-40.8 1198,-40.8"/>
</g>
<g id="clust6" class="cluster">
<title>cluster_CartsModule_imports</title>
<polygon fill="none" stroke="black" points="16,-40.8 16,-92.8 1190,-92.8 1190,-40.8 16,-40.8"/>
</g>
<!-- CartDetailComponent -->
<g id="node1" class="node">
<title>CartDetailComponent</title>
<polygon fill="#ffffb3" stroke="black" points="1645.64,-84.8 1506.36,-84.8 1506.36,-48.8 1645.64,-48.8 1645.64,-84.8"/>
<text text-anchor="middle" x="1576" y="-62.6" font-family="Times,serif" font-size="14.00">CartDetailComponent</text>
</g>
<!-- CartsModule -->
<g id="node4" class="node">
<title>CartsModule</title>
<polygon fill="#8dd3c7" stroke="black" points="872.6,-149.8 869.6,-153.8 848.6,-153.8 845.6,-149.8 783.4,-149.8 783.4,-113.8 872.6,-113.8 872.6,-149.8"/>
<text text-anchor="middle" x="828" y="-127.6" font-family="Times,serif" font-size="14.00">CartsModule</text>
</g>
<!-- CartDetailComponent&#45;&gt;CartsModule -->
<g id="edge1" class="edge">
<title>CartDetailComponent&#45;&gt;CartsModule</title>
<path fill="none" stroke="black" d="M1576,-84.89C1576,-107.93 1576,-144.8 1576,-144.8 1576,-144.8 882.55,-144.8 882.55,-144.8"/>
<polygon fill="black" stroke="black" points="882.55,-141.3 872.55,-144.8 882.55,-148.3 882.55,-141.3"/>
</g>
<!-- CartListComponent -->
<g id="node2" class="node">
<title>CartListComponent</title>
<polygon fill="#ffffb3" stroke="black" points="1488.71,-84.8 1361.29,-84.8 1361.29,-48.8 1488.71,-48.8 1488.71,-84.8"/>
<text text-anchor="middle" x="1425" y="-62.6" font-family="Times,serif" font-size="14.00">CartListComponent</text>
</g>
<!-- CartListComponent&#45;&gt;CartsModule -->
<g id="edge2" class="edge">
<title>CartListComponent&#45;&gt;CartsModule</title>
<path fill="none" stroke="black" d="M1425,-85.08C1425,-106.12 1425,-137.8 1425,-137.8 1425,-137.8 882.87,-137.8 882.87,-137.8"/>
<polygon fill="black" stroke="black" points="882.87,-134.3 872.87,-137.8 882.87,-141.3 882.87,-134.3"/>
</g>
<!-- CartTableComponent -->
<g id="node3" class="node">
<title>CartTableComponent</title>
<polygon fill="#ffffb3" stroke="black" points="1343.81,-84.8 1206.19,-84.8 1206.19,-48.8 1343.81,-48.8 1343.81,-84.8"/>
<text text-anchor="middle" x="1275" y="-62.6" font-family="Times,serif" font-size="14.00">CartTableComponent</text>
</g>
<!-- CartTableComponent&#45;&gt;CartsModule -->
<g id="edge3" class="edge">
<title>CartTableComponent&#45;&gt;CartsModule</title>
<path fill="none" stroke="black" d="M1275,-84.91C1275,-104.14 1275,-131.8 1275,-131.8 1275,-131.8 882.91,-131.8 882.91,-131.8"/>
<polygon fill="black" stroke="black" points="882.91,-128.3 872.91,-131.8 882.91,-135.3 882.91,-128.3"/>
</g>
<!-- AlertModule -->
<g id="node5" class="node">
<title>AlertModule</title>
<polygon fill="#8dd3c7" stroke="black" points="1182.31,-84.8 1179.31,-88.8 1158.31,-88.8 1155.31,-84.8 1093.69,-84.8 1093.69,-48.8 1182.31,-48.8 1182.31,-84.8"/>
<text text-anchor="middle" x="1138" y="-62.6" font-family="Times,serif" font-size="14.00">AlertModule</text>
</g>
<!-- AlertModule&#45;&gt;CartsModule -->
<g id="edge4" class="edge">
<title>AlertModule&#45;&gt;CartsModule</title>
<path fill="none" stroke="black" d="M1138,-84.82C1138,-102.17 1138,-125.8 1138,-125.8 1138,-125.8 882.75,-125.8 882.75,-125.8"/>
<polygon fill="black" stroke="black" points="882.75,-122.3 872.75,-125.8 882.75,-129.3 882.75,-122.3"/>
</g>
<!-- CartsRoutingModule -->
<g id="node6" class="node">
<title>CartsRoutingModule</title>
<polygon fill="#8dd3c7" stroke="black" points="1076.21,-84.8 1073.21,-88.8 1052.21,-88.8 1049.21,-84.8 941.79,-84.8 941.79,-48.8 1076.21,-48.8 1076.21,-84.8"/>
<text text-anchor="middle" x="1009" y="-62.6" font-family="Times,serif" font-size="14.00">CartsRoutingModule</text>
</g>
<!-- CartsRoutingModule&#45;&gt;CartsModule -->
<g id="edge5" class="edge">
<title>CartsRoutingModule&#45;&gt;CartsModule</title>
<path fill="none" stroke="black" d="M1009,-85.04C1009,-100.37 1009,-119.8 1009,-119.8 1009,-119.8 882.74,-119.8 882.74,-119.8"/>
<polygon fill="black" stroke="black" points="882.74,-116.3 872.74,-119.8 882.74,-123.3 882.74,-116.3"/>
</g>
<!-- ConfigurationSummaryModule -->
<g id="node7" class="node">
<title>ConfigurationSummaryModule</title>
<polygon fill="#8dd3c7" stroke="black" points="924.03,-84.8 921.03,-88.8 900.03,-88.8 897.03,-84.8 731.97,-84.8 731.97,-48.8 924.03,-48.8 924.03,-84.8"/>
<text text-anchor="middle" x="828" y="-62.6" font-family="Times,serif" font-size="14.00">ConfigurationSummaryModule</text>
</g>
<!-- ConfigurationSummaryModule&#45;&gt;CartsModule -->
<g id="edge6" class="edge">
<title>ConfigurationSummaryModule&#45;&gt;CartsModule</title>
<path fill="none" stroke="black" d="M828,-84.91C828,-84.91 828,-103.79 828,-103.79"/>
<polygon fill="black" stroke="black" points="824.5,-103.79 828,-113.79 831.5,-103.79 824.5,-103.79"/>
</g>
<!-- ConstraintRuleModule -->
<g id="node8" class="node">
<title>ConstraintRuleModule</title>
<polygon fill="#8dd3c7" stroke="black" points="714.32,-84.8 711.32,-88.8 690.32,-88.8 687.32,-84.8 569.68,-84.8 569.68,-48.8 714.32,-48.8 714.32,-84.8"/>
<text text-anchor="middle" x="642" y="-62.6" font-family="Times,serif" font-size="14.00">ConstraintRuleModule</text>
</g>
<!-- ConstraintRuleModule&#45;&gt;CartsModule -->
<g id="edge7" class="edge">
<title>ConstraintRuleModule&#45;&gt;CartsModule</title>
<path fill="none" stroke="black" d="M642,-85.04C642,-100.37 642,-119.8 642,-119.8 642,-119.8 773.45,-119.8 773.45,-119.8"/>
<polygon fill="black" stroke="black" points="773.45,-123.3 783.45,-119.8 773.45,-116.3 773.45,-123.3"/>
</g>
<!-- LineItemTableRowModule -->
<g id="node9" class="node">
<title>LineItemTableRowModule</title>
<polygon fill="#8dd3c7" stroke="black" points="551.68,-84.8 548.68,-88.8 527.68,-88.8 524.68,-84.8 382.32,-84.8 382.32,-48.8 551.68,-48.8 551.68,-84.8"/>
<text text-anchor="middle" x="467" y="-62.6" font-family="Times,serif" font-size="14.00">LineItemTableRowModule</text>
</g>
<!-- LineItemTableRowModule&#45;&gt;CartsModule -->
<g id="edge8" class="edge">
<title>LineItemTableRowModule&#45;&gt;CartsModule</title>
<path fill="none" stroke="black" d="M467,-84.82C467,-102.17 467,-125.8 467,-125.8 467,-125.8 773.37,-125.8 773.37,-125.8"/>
<polygon fill="black" stroke="black" points="773.37,-129.3 783.37,-125.8 773.37,-122.3 773.37,-129.3"/>
</g>
<!-- PricingModule -->
<g id="node10" class="node">
<title>PricingModule</title>
<polygon fill="#8dd3c7" stroke="black" points="363.99,-84.8 360.99,-88.8 339.99,-88.8 336.99,-84.8 264.01,-84.8 264.01,-48.8 363.99,-48.8 363.99,-84.8"/>
<text text-anchor="middle" x="314" y="-62.6" font-family="Times,serif" font-size="14.00">PricingModule</text>
</g>
<!-- PricingModule&#45;&gt;CartsModule -->
<g id="edge9" class="edge">
<title>PricingModule&#45;&gt;CartsModule</title>
<path fill="none" stroke="black" d="M314,-84.91C314,-104.14 314,-131.8 314,-131.8 314,-131.8 773.29,-131.8 773.29,-131.8"/>
<polygon fill="black" stroke="black" points="773.29,-135.3 783.29,-131.8 773.28,-128.3 773.29,-135.3"/>
</g>
<!-- SelectAllModule -->
<g id="node11" class="node">
<title>SelectAllModule</title>
<polygon fill="#8dd3c7" stroke="black" points="245.65,-84.8 242.65,-88.8 221.65,-88.8 218.65,-84.8 134.35,-84.8 134.35,-48.8 245.65,-48.8 245.65,-84.8"/>
<text text-anchor="middle" x="190" y="-62.6" font-family="Times,serif" font-size="14.00">SelectAllModule</text>
</g>
<!-- SelectAllModule&#45;&gt;CartsModule -->
<g id="edge10" class="edge">
<title>SelectAllModule&#45;&gt;CartsModule</title>
<path fill="none" stroke="black" d="M190,-85.08C190,-106.12 190,-137.8 190,-137.8 190,-137.8 773.39,-137.8 773.39,-137.8"/>
<polygon fill="black" stroke="black" points="773.39,-141.3 783.39,-137.8 773.39,-134.3 773.39,-141.3"/>
</g>
<!-- TableModule -->
<g id="node12" class="node">
<title>TableModule</title>
<polygon fill="#8dd3c7" stroke="black" points="115.92,-84.8 112.92,-88.8 91.92,-88.8 88.92,-84.8 24.08,-84.8 24.08,-48.8 115.92,-48.8 115.92,-84.8"/>
<text text-anchor="middle" x="70" y="-62.6" font-family="Times,serif" font-size="14.00">TableModule</text>
</g>
<!-- TableModule&#45;&gt;CartsModule -->
<g id="edge11" class="edge">
<title>TableModule&#45;&gt;CartsModule</title>
<path fill="none" stroke="black" d="M70,-84.89C70,-107.93 70,-144.8 70,-144.8 70,-144.8 773.41,-144.8 773.41,-144.8"/>
<polygon fill="black" stroke="black" points="773.41,-148.3 783.41,-144.8 773.41,-141.3 773.41,-148.3"/>
</g>
</g>
</svg>
